<svg xmlns="http://www.w3.org/2000/svg" xmlns:xlink="http://www.w3.org/1999/xlink" width="189" height="133" viewBox="0 0 189 133">
  <defs>
    <clipPath id="clip-path">
      <rect width="189" height="133" fill="none"/>
    </clipPath>
  </defs>
  <g id="Repeat_Grid_1" data-name="Repeat Grid 1" clip-path="url(#clip-path)">
    <g transform="translate(-195 -948)">
      <g id="Ellipse_1" data-name="Ellipse 1" transform="translate(199 952)" fill="#fff" stroke="#707070" stroke-width="1">
        <circle cx="8" cy="8" r="8" stroke="none"/>
        <circle cx="8" cy="8" r="7.5" fill="none"/>
      </g>
    </g>
    <g transform="translate(-156 -948)">
      <g id="Ellipse_1-2" data-name="Ellipse 1" transform="translate(199 952)" fill="#fff" stroke="#707070" stroke-width="1">
        <circle cx="8" cy="8" r="8" stroke="none"/>
        <circle cx="8" cy="8" r="7.5" fill="none"/>
      </g>
    </g>
    <g transform="translate(-117 -948)">
      <g id="Ellipse_1-3" data-name="Ellipse 1" transform="translate(199 952)" fill="#fff" stroke="#707070" stroke-width="1">
        <circle cx="8" cy="8" r="8" stroke="none"/>
        <circle cx="8" cy="8" r="7.5" fill="none"/>
      </g>
    </g>
    <g transform="translate(-78 -948)">
      <g id="Ellipse_1-4" data-name="Ellipse 1" transform="translate(199 952)" fill="#fff" stroke="#707070" stroke-width="1">
        <circle cx="8" cy="8" r="8" stroke="none"/>
        <circle cx="8" cy="8" r="7.5" fill="none"/>
      </g>
    </g>
    <g transform="translate(-39 -948)">
      <g id="Ellipse_1-5" data-name="Ellipse 1" transform="translate(199 952)" fill="#fff" stroke="#707070" stroke-width="1">
        <circle cx="8" cy="8" r="8" stroke="none"/>
        <circle cx="8" cy="8" r="7.5" fill="none"/>
      </g>
    </g>
    <g transform="translate(-195 -914)">
      <g id="Ellipse_1-6" data-name="Ellipse 1" transform="translate(199 952)" fill="#fff" stroke="#707070" stroke-width="1">
        <circle cx="8" cy="8" r="8" stroke="none"/>
        <circle cx="8" cy="8" r="7.5" fill="none"/>
      </g>
    </g>
    <g transform="translate(-156 -914)">
      <g id="Ellipse_1-7" data-name="Ellipse 1" transform="translate(199 952)" fill="#fff" stroke="#707070" stroke-width="1">
        <circle cx="8" cy="8" r="8" stroke="none"/>
        <circle cx="8" cy="8" r="7.5" fill="none"/>
      </g>
    </g>
    <g transform="translate(-117 -914)">
      <g id="Ellipse_1-8" data-name="Ellipse 1" transform="translate(199 952)" fill="#fff" stroke="#707070" stroke-width="1">
        <circle cx="8" cy="8" r="8" stroke="none"/>
        <circle cx="8" cy="8" r="7.5" fill="none"/>
      </g>
    </g>
    <g transform="translate(-78 -914)">
      <g id="Ellipse_1-9" data-name="Ellipse 1" transform="translate(199 952)" fill="#fff" stroke="#707070" stroke-width="1">
        <circle cx="8" cy="8" r="8" stroke="none"/>
        <circle cx="8" cy="8" r="7.5" fill="none"/>
      </g>
    </g>
    <g transform="translate(-39 -914)">
      <g id="Ellipse_1-10" data-name="Ellipse 1" transform="translate(199 952)" fill="#fff" stroke="#707070" stroke-width="1">
        <circle cx="8" cy="8" r="8" stroke="none"/>
        <circle cx="8" cy="8" r="7.5" fill="none"/>
      </g>
    </g>
    <g transform="translate(-195 -880)">
      <g id="Ellipse_1-11" data-name="Ellipse 1" transform="translate(199 952)" fill="#fff" stroke="#707070" stroke-width="1">
        <circle cx="8" cy="8" r="8" stroke="none"/>
        <circle cx="8" cy="8" r="7.5" fill="none"/>
      </g>
    </g>
    <g transform="translate(-156 -880)">
      <g id="Ellipse_1-12" data-name="Ellipse 1" transform="translate(199 952)" fill="#fff" stroke="#707070" stroke-width="1">
        <circle cx="8" cy="8" r="8" stroke="none"/>
        <circle cx="8" cy="8" r="7.5" fill="none"/>
      </g>
    </g>
    <g transform="translate(-117 -880)">
      <g id="Ellipse_1-13" data-name="Ellipse 1" transform="translate(199 952)" fill="#fff" stroke="#707070" stroke-width="1">
        <circle cx="8" cy="8" r="8" stroke="none"/>
        <circle cx="8" cy="8" r="7.5" fill="none"/>
      </g>
    </g>
    <g transform="translate(-78 -880)">
      <g id="Ellipse_1-14" data-name="Ellipse 1" transform="translate(199 952)" fill="#fff" stroke="#707070" stroke-width="1">
        <circle cx="8" cy="8" r="8" stroke="none"/>
        <circle cx="8" cy="8" r="7.5" fill="none"/>
      </g>
    </g>
    <g transform="translate(-39 -880)">
      <g id="Ellipse_1-15" data-name="Ellipse 1" transform="translate(199 952)" fill="#fff" stroke="#707070" stroke-width="1">
        <circle cx="8" cy="8" r="8" stroke="none"/>
        <circle cx="8" cy="8" r="7.5" fill="none"/>
      </g>
    </g>
    <g transform="translate(-195 -846)">
      <g id="Ellipse_1-16" data-name="Ellipse 1" transform="translate(199 952)" fill="#fff" stroke="#707070" stroke-width="1">
        <circle cx="8" cy="8" r="8" stroke="none"/>
        <circle cx="8" cy="8" r="7.5" fill="none"/>
      </g>
    </g>
    <g transform="translate(-156 -846)">
      <g id="Ellipse_1-17" data-name="Ellipse 1" transform="translate(199 952)" fill="#fff" stroke="#707070" stroke-width="1">
        <circle cx="8" cy="8" r="8" stroke="none"/>
        <circle cx="8" cy="8" r="7.5" fill="none"/>
      </g>
    </g>
    <g transform="translate(-117 -846)">
      <g id="Ellipse_1-18" data-name="Ellipse 1" transform="translate(199 952)" fill="#fff" stroke="#707070" stroke-width="1">
        <circle cx="8" cy="8" r="8" stroke="none"/>
        <circle cx="8" cy="8" r="7.5" fill="none"/>
      </g>
    </g>
    <g transform="translate(-78 -846)">
      <g id="Ellipse_1-19" data-name="Ellipse 1" transform="translate(199 952)" fill="#fff" stroke="#707070" stroke-width="1">
        <circle cx="8" cy="8" r="8" stroke="none"/>
        <circle cx="8" cy="8" r="7.5" fill="none"/>
      </g>
    </g>
    <g transform="translate(-39 -846)">
      <g id="Ellipse_1-20" data-name="Ellipse 1" transform="translate(199 952)" fill="#fff" stroke="#707070" stroke-width="1">
        <circle cx="8" cy="8" r="8" stroke="none"/>
        <circle cx="8" cy="8" r="7.5" fill="none"/>
      </g>
    </g>
  </g>
</svg>
